<?xml version="1.0" encoding="UTF-8" standalone="no"?>
<!-- Created with Inkscape (http://www.inkscape.org/) -->

<svg
   xmlns:dc="http://purl.org/dc/elements/1.1/"
   xmlns:cc="http://creativecommons.org/ns#"
   xmlns:rdf="http://www.w3.org/1999/02/22-rdf-syntax-ns#"
   xmlns:svg="http://www.w3.org/2000/svg"
   xmlns="http://www.w3.org/2000/svg"
   xmlns:sodipodi="http://sodipodi.sourceforge.net/DTD/sodipodi-0.dtd"
   xmlns:inkscape="http://www.inkscape.org/namespaces/inkscape"
   width="169.666"
   height="66.418999"
   id="svg3066"
   version="1.1"
   inkscape:version="0.48.4 r9939"
   sodipodi:docname="New document 2">
  <defs
     id="defs3068" />
  <sodipodi:namedview
     id="base"
     pagecolor="#ffffff"
     bordercolor="#666666"
     borderopacity="1.0"
     inkscape:pageopacity="0.0"
     inkscape:pageshadow="2"
     inkscape:zoom="0.35"
     inkscape:cx="119.833"
     inkscape:cy="-163.93336"
     inkscape:document-units="px"
     inkscape:current-layer="layer1"
     showgrid="false"
     fit-margin-top="0"
     fit-margin-left="0"
     fit-margin-right="0"
     fit-margin-bottom="0"
     inkscape:window-width="1920"
     inkscape:window-height="1053"
     inkscape:window-x="1600"
     inkscape:window-y="0"
     inkscape:window-maximized="1" />
  <metadata
     id="metadata3071">
    <rdf:RDF>
      <cc:Work
         rdf:about="">
        <dc:format>image/svg+xml</dc:format>
        <dc:type
           rdf:resource="http://purl.org/dc/dcmitype/StillImage" />
        <dc:title></dc:title>
      </cc:Work>
    </rdf:RDF>
  </metadata>
  <g
     inkscape:label="Layer 1"
     inkscape:groupmode="layer"
     id="layer1"
     transform="translate(-255.167,-302.00982)">
    <g
       transform="translate(-55.665,29.342823)"
       id="g3">
      <g
         id="g5">
        <path
           style="fill:#5e0500"
           inkscape:connector-curvature="0"
           d="m 345.194,338.947 h -1.91 v -12.154 h 1.91 v 5.209 h 2.171 v -5.209 h 1.944 v 12.154 h -1.944 v -5.209 h -2.171 v 5.209 z"
           id="path7" />
        <path
           style="fill:#5e0500"
           inkscape:connector-curvature="0"
           d="m 350.51,329.71 c 0,-1.945 1.024,-3.056 2.9,-3.056 1.875,0 2.899,1.111 2.899,3.056 v 6.32 c 0,1.945 -1.024,3.056 -2.899,3.056 -1.876,0 -2.9,-1.111 -2.9,-3.056 v -6.32 z m 1.91,6.442 c 0,0.868 0.381,1.198 0.99,1.198 0.608,0 0.989,-0.33 0.989,-1.198 v -6.564 c 0,-0.869 -0.381,-1.198 -0.989,-1.198 -0.609,0 -0.99,0.329 -0.99,1.198 v 6.564 z"
           id="path9" />
        <path
           style="fill:#5e0500"
           inkscape:connector-curvature="0"
           d="m 361.485,335.422 h 0.035 l 1.285,-8.629 h 2.656 v 12.154 h -1.806 v -8.716 h -0.034 l -1.285,8.716 h -1.806 l -1.389,-8.595 h -0.035 v 8.595 h -1.667 v -12.154 h 2.657 l 1.389,8.629 z"
           id="path11" />
        <path
           style="fill:#5e0500"
           inkscape:connector-curvature="0"
           d="m 368.693,331.915 h 2.621 v 1.736 h -2.621 v 3.56 h 3.299 v 1.736 h -5.209 v -12.154 h 5.209 v 1.736 h -3.299 v 3.386 z"
           id="path13" />
        <path
           style="fill:#5e0500"
           inkscape:connector-curvature="0"
           d="m 375.779,326.653 c 1.858,0 2.812,1.111 2.812,3.056 v 0.382 h -1.805 v -0.504 c 0,-0.869 -0.347,-1.198 -0.955,-1.198 -0.608,0 -0.955,0.329 -0.955,1.198 0,0.885 0.381,1.545 1.632,2.639 1.597,1.406 2.1,2.414 2.1,3.802 0,1.945 -0.972,3.056 -2.847,3.056 -1.875,0 -2.847,-1.111 -2.847,-3.056 v -0.746 h 1.806 v 0.869 c 0,0.868 0.381,1.18 0.99,1.18 0.608,0 0.989,-0.312 0.989,-1.18 0,-0.886 -0.381,-1.546 -1.631,-2.64 -1.597,-1.406 -2.101,-2.414 -2.101,-3.802 -10e-4,-1.944 0.954,-3.056 2.812,-3.056 z"
           id="path15" />
        <path
           style="fill:#5e0500"
           inkscape:connector-curvature="0"
           d="m 379.202,326.793 h 5.904 v 1.736 h -1.997 v 10.417 h -1.91 v -10.417 h -1.996 v -1.736 z"
           id="path17" />
        <path
           style="fill:#5e0500"
           inkscape:connector-curvature="0"
           d="m 387.798,334.918 -2.414,-8.125 h 1.997 l 1.441,5.539 h 0.034 l 1.441,-5.539 h 1.824 l -2.414,8.125 v 4.029 h -1.91 v -4.029 z"
           id="path19" />
        <path
           style="fill:#5e0500"
           inkscape:connector-curvature="0"
           d="m 392.957,326.793 h 1.91 v 10.417 h 3.142 v 1.736 h -5.052 v -12.153 z"
           id="path21" />
        <path
           style="fill:#5e0500"
           inkscape:connector-curvature="0"
           d="m 400.824,331.915 h 2.621 v 1.736 h -2.621 v 3.56 h 3.299 v 1.736 h -5.209 v -12.154 h 5.209 v 1.736 h -3.299 v 3.386 z"
           id="path23" />
        <path
           style="fill:#5e0500"
           inkscape:connector-curvature="0"
           d="m 410.914,334.103 -0.59,1.111 v 3.733 h -1.91 v -12.154 h 1.91 v 5.26 h 0.035 l 2.465,-5.26 h 1.91 l -2.656,5.416 2.656,6.737 h -1.961 l -1.859,-4.843 z"
           id="path25" />
        <path
           style="fill:#5e0500"
           inkscape:connector-curvature="0"
           d="m 415.136,329.71 c 0,-1.945 1.024,-3.056 2.899,-3.056 1.876,0 2.9,1.111 2.9,3.056 v 6.32 c 0,1.945 -1.024,3.056 -2.9,3.056 -1.875,0 -2.899,-1.111 -2.899,-3.056 v -6.32 z m 1.91,6.442 c 0,0.868 0.381,1.198 0.989,1.198 0.609,0 0.99,-0.33 0.99,-1.198 v -6.564 c 0,-0.869 -0.381,-1.198 -0.99,-1.198 -0.608,0 -0.989,0.329 -0.989,1.198 v 6.564 z"
           id="path27" />
        <path
           style="fill:#5e0500"
           inkscape:connector-curvature="0"
           d="m 425.989,338.947 c -0.104,-0.312 -0.173,-0.504 -0.173,-1.494 v -1.91 c 0,-1.128 -0.382,-1.545 -1.251,-1.545 h -0.659 v 4.949 h -1.91 v -12.154 h 2.881 c 1.98,0 2.831,0.92 2.831,2.795 v 0.955 c 0,1.25 -0.4,2.049 -1.25,2.449 v 0.034 c 0.954,0.4 1.267,1.302 1.267,2.57 v 1.875 c 0,0.591 0.016,1.025 0.208,1.476 h -1.944 z m -2.082,-10.418 v 3.733 h 0.746 c 0.711,0 1.146,-0.312 1.146,-1.285 v -1.198 c 0,-0.869 -0.295,-1.25 -0.972,-1.25 h -0.92 z"
           id="path29" />
        <path
           style="fill:#5e0500"
           inkscape:connector-curvature="0"
           d="m 430.785,331.915 h 2.621 v 1.736 h -2.621 v 3.56 h 3.299 v 1.736 h -5.209 v -12.154 h 5.209 v 1.736 h -3.299 v 3.386 z"
           id="path31" />
        <path
           style="fill:#5e0500"
           inkscape:connector-curvature="0"
           d="m 441.395,338.947 h -1.927 l -0.33,-2.205 h -2.344 l -0.33,2.205 h -1.754 l 1.945,-12.154 h 2.795 l 1.945,12.154 z m -4.358,-3.855 h 1.841 l -0.904,-6.146 h -0.035 l -0.902,6.146 z"
           id="path33" />
        <path
           style="fill:#5e0500"
           inkscape:connector-curvature="0"
           d="m 443.88,330.143 h -0.035 v 8.803 h -1.719 v -12.154 h 2.396 l 1.926,7.275 h 0.035 v -7.275 h 1.702 v 12.154 h -1.962 l -2.343,-8.803 z"
           id="path35" />
      </g>
      <g
         id="g37">
        <path
           style="fill:#ef4136"
           inkscape:connector-curvature="0"
           d="m 325.854,317.733 h -3.755 l -4.808,-21.482 -2.704,8.187 v 13.295 h -3.755 v -45.066 h 3.755 v 20.58 l 7.512,-20.58 h 3.755 l -6.009,17.801 6.009,27.265 z"
           id="path39" />
        <path
           style="fill:#ef4136"
           inkscape:connector-curvature="0"
           d="m 343.407,317.733 v -3.755 h 3.755 v -37.556 h -3.755 v -3.755 h 11.266 v 3.755 h -3.755 v 37.556 h 3.755 v 3.755 h -11.266 z"
           id="path41" />
        <path
           style="fill:#ef4136"
           inkscape:connector-curvature="0"
           d="m 387.67,310.222 c 0,2.054 -0.739,3.819 -2.216,5.296 -1.478,1.477 -3.243,2.216 -5.296,2.216 -2.054,0 -3.818,-0.738 -5.295,-2.216 -1.478,-1.477 -2.216,-3.242 -2.216,-5.296 v -30.044 c 0,-2.053 0.738,-3.818 2.216,-5.295 1.477,-1.476 3.241,-2.216 5.295,-2.216 2.053,0 3.818,0.739 5.296,2.216 1.477,1.478 2.216,3.242 2.216,5.295 v 3.755 h -3.755 v -3.755 c 0,-1.052 -0.365,-1.94 -1.09,-2.666 -0.726,-0.726 -1.615,-1.089 -2.667,-1.089 -1.052,0 -1.941,0.364 -2.666,1.089 -0.727,0.727 -1.09,1.615 -1.09,2.666 v 30.044 c 0,1.052 0.362,1.941 1.09,2.667 0.725,0.726 1.614,1.089 2.666,1.089 1.052,0 1.941,-0.363 2.667,-1.089 0.725,-0.726 1.09,-1.615 1.09,-2.667 v -3.755 h 3.755 v 3.755 z"
           id="path43" />
        <path
           style="fill:#ef4136"
           inkscape:connector-curvature="0"
           d="m 419.629,317.733 h -3.755 v -20.656 h -7.511 v 20.656 h -3.755 v -45.066 h 3.755 v 20.655 h 7.511 v -20.655 h 3.755 v 45.066 z"
           id="path45" />
        <path
           style="fill:#ef4136"
           inkscape:connector-curvature="0"
           d="m 436.919,317.733 v -3.755 h 3.756 v -37.556 h -3.756 v -3.755 h 11.267 v 3.755 h -3.755 v 37.556 h 3.755 v 3.755 h -11.267 z"
           id="path47" />
        <path
           style="fill:#ef4136"
           inkscape:connector-curvature="0"
           d="m 480.498,317.733 h -3.755 l -7.511,-30.044 v 30.044 h -3.755 v -45.066 h 3.755 l 7.511,30.044 v -30.044 h 3.755 v 45.066 z"
           id="path49" />
      </g>
    </g>
  </g>
</svg>
