<?xml version="1.0" encoding="utf-8"?>
<!-- Generator: Adobe Illustrator 17.0.0, SVG Export Plug-In . SVG Version: 6.00 Build 0)  -->
<!DOCTYPE svg PUBLIC "-//W3C//DTD SVG 1.1//EN" "http://www.w3.org/Graphics/SVG/1.1/DTD/svg11.dtd">
<svg version="1.1" id="Layer_1" xmlns="http://www.w3.org/2000/svg" xmlns:xlink="http://www.w3.org/1999/xlink" x="0px" y="0px"
	 width="792px" height="612px" viewBox="0 0 792 612" enable-background="new 0 0 792 612" xml:space="preserve">
<g>
	<g>
		<path fill="#5E0500" d="M345.194,338.947h-1.91v-12.154h1.91v5.209h2.171v-5.209h1.944v12.154h-1.944v-5.209h-2.171V338.947z"/>
		<path fill="#5E0500" d="M350.51,329.71c0-1.945,1.024-3.056,2.9-3.056c1.875,0,2.899,1.111,2.899,3.056v6.32
			c0,1.945-1.024,3.056-2.899,3.056c-1.876,0-2.9-1.111-2.9-3.056V329.71z M352.42,336.152c0,0.868,0.381,1.198,0.99,1.198
			c0.608,0,0.989-0.33,0.989-1.198v-6.564c0-0.869-0.381-1.198-0.989-1.198c-0.609,0-0.99,0.329-0.99,1.198V336.152z"/>
		<path fill="#5E0500" d="M361.485,335.422h0.035l1.285-8.629h2.656v12.154h-1.806v-8.716h-0.034l-1.285,8.716h-1.806l-1.389-8.595
			h-0.035v8.595h-1.667v-12.154h2.657L361.485,335.422z"/>
		<path fill="#5E0500" d="M368.693,331.915h2.621v1.736h-2.621v3.56h3.299v1.736h-5.209v-12.154h5.209v1.736h-3.299V331.915z"/>
		<path fill="#5E0500" d="M375.779,326.653c1.858,0,2.812,1.111,2.812,3.056v0.382h-1.805v-0.504c0-0.869-0.347-1.198-0.955-1.198
			c-0.608,0-0.955,0.329-0.955,1.198c0,0.885,0.381,1.545,1.632,2.639c1.597,1.406,2.1,2.414,2.1,3.802
			c0,1.945-0.972,3.056-2.847,3.056s-2.847-1.111-2.847-3.056v-0.746h1.806v0.869c0,0.868,0.381,1.18,0.99,1.18
			c0.608,0,0.989-0.312,0.989-1.18c0-0.886-0.381-1.546-1.631-2.64c-1.597-1.406-2.101-2.414-2.101-3.802
			C372.966,327.765,373.921,326.653,375.779,326.653z"/>
		<path fill="#5E0500" d="M379.202,326.793h5.904v1.736h-1.997v10.417h-1.91v-10.417h-1.996V326.793z"/>
		<path fill="#5E0500" d="M387.798,334.918l-2.414-8.125h1.997l1.441,5.539h0.034l1.441-5.539h1.824l-2.414,8.125v4.029h-1.91
			V334.918z"/>
		<path fill="#5E0500" d="M392.957,326.793h1.91v10.417h3.142v1.736h-5.052V326.793z"/>
		<path fill="#5E0500" d="M400.824,331.915h2.621v1.736h-2.621v3.56h3.299v1.736h-5.209v-12.154h5.209v1.736h-3.299V331.915z"/>
		<path fill="#5E0500" d="M410.914,334.103l-0.59,1.111v3.733h-1.91v-12.154h1.91v5.26h0.035l2.465-5.26h1.91l-2.656,5.416
			l2.656,6.737h-1.961L410.914,334.103z"/>
		<path fill="#5E0500" d="M415.136,329.71c0-1.945,1.024-3.056,2.899-3.056c1.876,0,2.9,1.111,2.9,3.056v6.32
			c0,1.945-1.024,3.056-2.9,3.056c-1.875,0-2.899-1.111-2.899-3.056V329.71z M417.046,336.152c0,0.868,0.381,1.198,0.989,1.198
			c0.609,0,0.99-0.33,0.99-1.198v-6.564c0-0.869-0.381-1.198-0.99-1.198c-0.608,0-0.989,0.329-0.989,1.198V336.152z"/>
		<path fill="#5E0500" d="M425.989,338.947c-0.104-0.312-0.173-0.504-0.173-1.494v-1.91c0-1.128-0.382-1.545-1.251-1.545h-0.659
			v4.949h-1.91v-12.154h2.881c1.98,0,2.831,0.92,2.831,2.795v0.955c0,1.25-0.4,2.049-1.25,2.449v0.034
			c0.954,0.4,1.267,1.302,1.267,2.57v1.875c0,0.591,0.016,1.025,0.208,1.476H425.989z M423.907,328.529v3.733h0.746
			c0.711,0,1.146-0.312,1.146-1.285v-1.198c0-0.869-0.295-1.25-0.972-1.25H423.907z"/>
		<path fill="#5E0500" d="M430.785,331.915h2.621v1.736h-2.621v3.56h3.299v1.736h-5.209v-12.154h5.209v1.736h-3.299V331.915z"/>
		<path fill="#5E0500" d="M441.395,338.947h-1.927l-0.33-2.205h-2.344l-0.33,2.205h-1.754l1.945-12.154h2.795L441.395,338.947z
			 M437.037,335.092h1.841l-0.904-6.146h-0.035L437.037,335.092z"/>
		<path fill="#5E0500" d="M443.88,330.143h-0.035v8.803h-1.719v-12.154h2.396l1.926,7.275h0.035v-7.275h1.702v12.154h-1.962
			L443.88,330.143z"/>
	</g>
	<g>
		<path fill="#EF4136" d="M325.854,317.733h-3.755l-4.808-21.482l-2.704,8.187v13.295h-3.755v-45.066h3.755v20.58l7.512-20.58h3.755
			l-6.009,17.801L325.854,317.733z"/>
		<path fill="#EF4136" d="M343.407,317.733v-3.755h3.755v-37.556h-3.755v-3.755h11.266v3.755h-3.755v37.556h3.755v3.755H343.407z"/>
		<path fill="#EF4136" d="M387.67,310.222c0,2.054-0.739,3.819-2.216,5.296c-1.478,1.477-3.243,2.216-5.296,2.216
			c-2.054,0-3.818-0.738-5.295-2.216c-1.478-1.477-2.216-3.242-2.216-5.296v-30.044c0-2.053,0.738-3.818,2.216-5.295
			c1.477-1.476,3.241-2.216,5.295-2.216c2.053,0,3.818,0.739,5.296,2.216c1.477,1.478,2.216,3.242,2.216,5.295v3.755h-3.755v-3.755
			c0-1.052-0.365-1.94-1.09-2.666c-0.726-0.726-1.615-1.089-2.667-1.089c-1.052,0-1.941,0.364-2.666,1.089
			c-0.727,0.727-1.09,1.615-1.09,2.666v30.044c0,1.052,0.362,1.941,1.09,2.667c0.725,0.726,1.614,1.089,2.666,1.089
			c1.052,0,1.941-0.363,2.667-1.089c0.725-0.726,1.09-1.615,1.09-2.667v-3.755h3.755V310.222z"/>
		<path fill="#EF4136" d="M419.629,317.733h-3.755v-20.656h-7.511v20.656h-3.755v-45.066h3.755v20.655h7.511v-20.655h3.755V317.733z
			"/>
		<path fill="#EF4136" d="M436.919,317.733v-3.755h3.756v-37.556h-3.756v-3.755h11.267v3.755h-3.755v37.556h3.755v3.755H436.919z"/>
		<path fill="#EF4136" d="M480.498,317.733h-3.755l-7.511-30.044v30.044h-3.755v-45.066h3.755l7.511,30.044v-30.044h3.755V317.733z"
			/>
	</g>
</g>
</svg>
